<?xml version="1.0" encoding="UTF-8" standalone="no"?>
<!DOCTYPE svg PUBLIC "-//W3C//DTD SVG 1.1//EN" "http://www.w3.org/Graphics/SVG/1.1/DTD/svg11.dtd">
<svg width="100%" height="100%" viewBox="0 0 5000 5000" version="1.1" xmlns="http://www.w3.org/2000/svg" xmlns:xlink="http://www.w3.org/1999/xlink" xml:space="preserve" xmlns:serif="http://www.serif.com/" style="fill-rule:evenodd;clip-rule:evenodd;stroke-linejoin:round;stroke-miterlimit:2;">
    <g id="Games" transform="matrix(1.32325,0,0,1.32325,-519.875,-1194.89)">
        <path d="M2396.28,3940.69C2358.74,3944.38 2320.68,3946.27 2282.17,3946.27C1645.27,3946.27 1128.19,3429.19 1128.19,2792.29C1128.19,2155.39 1645.27,1638.31 2282.17,1638.31L2396.28,1638.31L2396.28,2146.91L2282.17,2146.91C1925.98,2146.91 1636.79,2436.09 1636.79,2792.29C1636.79,3012.07 1746.89,3206.34 1914.89,3322.91L1914.89,2916.23L1914.89,2916.23C1914.89,2915.87 1914.89,2915.5 1914.89,2915.14C1914.89,2739.03 2057.75,2596.03 2233.81,2595.8C2233.95,2595.8 2234.09,2595.8 2234.23,2595.8L2396.28,2595.8L2396.28,3940.69Z" style="fill:#1E92FF;"/>
    </g>
    <g id="horn" transform="matrix(1.05251,0,0,1.05251,-142.761,-1640)">
        <path d="M3811.56,1596.18C3652.44,2029.97 3247.29,2345.48 2765.53,2373.27L2765.53,1596.18L3811.56,1596.18Z" style="fill:#1E92FF;"/>
    </g>
    <g id="Great" transform="matrix(2.13175,0,0,2.13175,-2365.02,-3452.47)">
        <path d="M2407.89,2670.33L3436.15,2670.33L3436.15,2792.29C3436.15,3429.19 2919.07,3946.27 2282.17,3946.27C1645.27,3946.27 1128.19,3429.19 1128.19,2792.29C1128.19,2155.39 1645.27,1638.31 2282.17,1638.31L2353.01,1638.31L2353.01,2021.09L2282.17,2021.09C1856.54,2021.09 1510.98,2366.66 1510.98,2792.29C1510.98,3217.93 1856.54,3563.49 2282.17,3563.49C2616.29,3563.49 2901.06,3350.56 3008.08,3053.11L2407.89,3053.11L2407.89,2670.33Z" style="fill:#FFFFFF;"/>
    </g>
</svg>
