<?xml version="1.0" standalone="no"?>
<!DOCTYPE svg PUBLIC "-//W3C//DTD SVG 20010904//EN"
 "http://www.w3.org/TR/2001/REC-SVG-20010904/DTD/svg10.dtd">
<svg version="1.0" xmlns="http://www.w3.org/2000/svg"
 width="5000.000000pt" height="5000.000000pt" viewBox="0 0 5000.000000 5000.000000"
 preserveAspectRatio="xMidYMid meet">
<metadata>
Created by potrace 1.14, written by Peter Selinger 2001-2017
</metadata>
<g transform="translate(0.000000,5000.000000) scale(0.100000,-0.100000)"
fill="#000000" stroke="none">
<path d="M24437 49594 c-1 -1 -99 -5 -217 -8 -118 -4 -258 -9 -310 -11 -145
-7 -340 -17 -385 -20 -46 -3 -209 -14 -310 -20 -67 -4 -175 -12 -260 -20 -22
-2 -71 -6 -110 -10 -112 -9 -177 -15 -225 -20 -25 -3 -76 -8 -115 -11 -38 -3
-77 -7 -85 -9 -8 -2 -44 -7 -80 -10 -36 -3 -81 -8 -100 -10 -19 -3 -114 -14
-211 -25 -179 -20 -203 -23 -319 -40 -36 -5 -85 -12 -110 -15 -25 -3 -56 -8
-70 -10 -24 -4 -38 -6 -145 -20 -84 -11 -90 -12 -315 -50 -85 -15 -171 -29
-190 -31 -19 -3 -57 -9 -85 -14 -27 -5 -66 -11 -85 -14 -19 -3 -96 -17 -170
-31 -74 -14 -157 -30 -185 -35 -27 -5 -140 -27 -250 -50 -110 -22 -211 -43
-225 -45 -14 -3 -43 -10 -65 -15 -22 -6 -123 -28 -225 -51 -221 -48 -170 -36
-430 -99 -118 -28 -307 -77 -420 -107 -112 -30 -211 -57 -220 -59 -8 -2 -58
-15 -110 -29 -52 -15 -102 -28 -110 -30 -8 -2 -114 -33 -235 -70 -121 -36
-229 -68 -240 -70 -53 -11 -679 -217 -1010 -333 -636 -222 -1550 -594 -2140
-872 -60 -28 -126 -59 -145 -67 -82 -37 -824 -406 -925 -460 -60 -33 -164 -88
-230 -123 -66 -34 -124 -66 -130 -70 -5 -4 -39 -23 -75 -42 -59 -32 -99 -54
-200 -111 -19 -11 -73 -41 -120 -67 -47 -26 -116 -66 -153 -89 -37 -22 -69
-41 -71 -41 -1 0 -62 -35 -133 -79 -72 -43 -135 -80 -140 -82 -5 -2 -58 -35
-118 -72 -61 -37 -119 -73 -130 -80 -11 -7 -49 -31 -85 -53 -36 -23 -112 -71
-170 -106 -111 -69 -612 -400 -740 -488 -41 -29 -118 -82 -170 -118 -82 -57
-356 -252 -385 -274 -5 -4 -23 -18 -40 -31 -16 -13 -60 -44 -97 -70 -67 -47
-650 -491 -691 -527 -27 -23 -251 -205 -303 -245 -47 -37 -249 -207 -298 -250
-6 -5 -38 -32 -71 -60 -99 -82 -113 -95 -254 -220 -75 -66 -177 -156 -226
-199 -50 -43 -122 -109 -160 -145 -39 -36 -129 -120 -200 -186 -382 -353 -990
-966 -1334 -1344 -13 -14 -44 -48 -70 -76 -67 -72 -428 -481 -481 -545 -39
-47 -91 -108 -125 -146 -5 -6 -26 -31 -45 -54 -19 -24 -43 -51 -52 -61 -29
-30 -390 -478 -487 -604 -51 -66 -103 -134 -117 -151 -78 -101 -241 -315 -254
-334 -8 -13 -24 -35 -36 -49 -46 -59 -289 -397 -395 -551 -63 -91 -122 -176
-132 -190 -89 -128 -427 -642 -508 -773 -57 -92 -68 -110 -165 -265 -33 -53
-101 -164 -149 -247 -49 -82 -108 -184 -133 -225 -195 -324 -495 -882 -752
-1394 -88 -176 -180 -363 -204 -415 -24 -53 -72 -154 -105 -224 -34 -71 -61
-130 -61 -132 0 -2 -18 -41 -39 -87 -22 -45 -51 -111 -65 -146 -15 -34 -39
-91 -55 -125 -16 -34 -43 -96 -61 -137 -18 -41 -41 -93 -51 -114 -11 -22 -19
-43 -19 -48 0 -5 -9 -27 -19 -51 -19 -41 -81 -193 -181 -442 -227 -565 -508
-1375 -685 -1975 -37 -124 -75 -252 -85 -285 -33 -104 -221 -811 -235 -883 -1
-9 -10 -44 -18 -77 -9 -33 -18 -71 -21 -85 -2 -14 -12 -53 -21 -87 -9 -35 -18
-71 -20 -80 -2 -10 -16 -72 -30 -138 -15 -66 -28 -127 -30 -135 -23 -100 -85
-394 -89 -425 -4 -22 -8 -47 -11 -55 -5 -19 -14 -66 -20 -104 -2 -15 -7 -35
-9 -45 -3 -9 -8 -32 -11 -51 -3 -19 -15 -80 -25 -135 -23 -116 -125 -726 -135
-800 -3 -27 -13 -97 -21 -155 -17 -119 -16 -114 -39 -275 -9 -66 -18 -131 -20
-145 -2 -14 -7 -54 -10 -90 -4 -36 -9 -72 -10 -80 -2 -8 -6 -49 -10 -90 -3
-41 -8 -86 -10 -100 -14 -98 -28 -229 -40 -375 -3 -38 -8 -91 -10 -117 -9 -87
-14 -142 -20 -213 -3 -38 -8 -95 -10 -125 -6 -73 -13 -161 -21 -295 -3 -60 -7
-130 -9 -155 -30 -492 -39 -833 -39 -1455 0 -620 12 -1081 38 -1485 2 -30 7
-102 11 -160 11 -184 22 -327 29 -401 3 -30 8 -85 11 -124 4 -38 8 -86 10
-105 2 -19 7 -71 10 -115 11 -128 13 -147 19 -200 3 -27 8 -72 11 -100 4 -27
8 -68 11 -90 11 -93 23 -202 29 -260 6 -50 13 -109 20 -155 2 -14 7 -50 10
-80 3 -30 8 -62 10 -70 2 -8 7 -35 10 -60 2 -25 7 -63 10 -85 4 -22 8 -53 10
-70 2 -16 6 -46 9 -65 3 -19 8 -52 11 -73 13 -94 108 -662 127 -757 11 -58 22
-114 23 -126 2 -12 8 -45 14 -75 6 -30 18 -90 27 -134 9 -44 18 -89 20 -100 2
-11 7 -36 10 -55 3 -19 12 -62 19 -95 8 -33 16 -71 19 -85 6 -33 73 -342 87
-400 15 -62 18 -76 24 -103 16 -72 147 -594 184 -732 16 -60 46 -171 66 -245
20 -74 49 -178 65 -230 26 -87 84 -279 145 -485 48 -158 277 -841 338 -1005 3
-8 37 -103 77 -210 39 -107 75 -204 80 -215 5 -11 35 -87 65 -170 31 -82 69
-179 85 -215 15 -36 56 -135 90 -220 59 -147 233 -554 286 -668 13 -29 24 -54
24 -57 0 -2 22 -50 49 -107 27 -57 72 -155 101 -218 62 -137 439 -897 508
-1025 26 -49 77 -144 112 -210 119 -227 445 -800 526 -927 13 -21 24 -40 24
-43 0 -4 14 -26 30 -50 17 -24 30 -46 30 -49 0 -6 375 -604 436 -694 27 -41
56 -84 64 -97 8 -13 46 -72 85 -132 38 -59 98 -147 132 -195 35 -48 63 -92 63
-97 0 -5 3 -11 8 -13 4 -2 59 -77 122 -168 294 -425 740 -1016 1045 -1386 28
-33 64 -78 80 -99 64 -83 428 -510 609 -715 179 -202 220 -247 306 -339 19
-21 82 -89 140 -152 306 -330 829 -854 1195 -1194 65 -60 134 -125 154 -144
20 -19 77 -70 126 -115 50 -44 106 -94 125 -112 19 -17 82 -73 140 -124 58
-51 121 -107 140 -124 19 -17 76 -65 125 -106 50 -41 95 -79 101 -85 6 -5 32
-28 58 -50 27 -22 60 -50 75 -63 84 -73 575 -467 675 -542 47 -36 97 -74 110
-85 13 -11 36 -29 51 -40 16 -11 69 -52 119 -90 129 -100 532 -391 726 -526
91 -63 176 -122 190 -132 14 -10 153 -102 310 -206 157 -105 290 -194 297
-200 7 -6 14 -11 17 -11 3 0 47 -27 98 -59 73 -46 302 -190 418 -261 63 -39
304 -180 307 -180 3 0 17 -8 31 -19 15 -10 43 -28 62 -38 523 -296 521 -295
925 -510 99 -53 868 -436 935 -466 19 -8 80 -36 135 -62 160 -75 216 -101 470
-212 132 -57 254 -111 270 -118 17 -8 80 -34 140 -59 61 -24 166 -67 235 -96
127 -52 513 -202 585 -227 22 -7 49 -18 60 -23 11 -6 40 -17 65 -26 25 -9 140
-50 255 -91 403 -144 930 -315 1325 -429 47 -14 112 -33 145 -43 144 -44 638
-177 805 -217 30 -7 75 -18 100 -24 25 -7 52 -13 60 -15 8 -2 33 -8 55 -13 22
-6 51 -13 65 -16 45 -9 71 -15 90 -21 10 -3 27 -8 37 -10 41 -8 400 -86 423
-92 14 -3 30 -7 35 -8 26 -6 273 -57 295 -61 14 -3 61 -12 105 -20 44 -9 91
-18 105 -20 14 -2 70 -13 125 -24 55 -11 116 -23 135 -26 27 -4 480 -79 600
-99 41 -7 167 -25 218 -30 26 -3 58 -8 72 -10 14 -2 39 -6 55 -9 34 -5 158
-23 225 -31 25 -4 56 -8 70 -10 14 -2 52 -6 85 -9 33 -4 76 -8 95 -11 19 -2
60 -7 90 -10 30 -4 66 -8 80 -10 14 -2 52 -7 85 -10 66 -6 126 -13 195 -20 48
-5 99 -10 220 -20 41 -4 89 -8 105 -11 17 -2 62 -6 100 -9 39 -2 97 -7 130
-10 33 -3 94 -7 135 -10 82 -4 249 -15 320 -20 328 -25 881 -39 1485 -39 620
0 1069 12 1455 39 25 2 95 6 155 9 177 11 295 19 415 31 14 1 61 5 105 9 44 4
98 9 120 11 49 5 167 16 215 20 113 10 168 16 190 20 14 2 54 7 90 10 36 3 72
8 80 10 8 2 47 6 85 10 39 3 81 8 95 10 14 2 50 6 81 10 31 3 65 7 75 9 11 2
44 7 74 11 30 3 66 8 80 10 14 2 45 7 70 10 25 3 56 8 70 10 14 2 79 11 145
20 66 9 143 21 170 26 28 5 68 12 90 14 22 3 63 10 90 15 28 5 64 11 80 14 99
15 304 50 385 66 52 10 111 21 130 24 44 7 77 14 98 20 9 3 33 7 52 10 95 15
306 58 590 121 140 31 262 58 270 60 45 10 321 77 354 86 22 6 46 12 55 14
102 20 738 194 1046 286 351 105 894 282 1150 375 99 36 185 66 190 68 6 2 24
6 40 11 17 4 48 16 70 25 22 10 56 23 75 30 19 7 49 18 65 25 17 7 100 39 185
70 85 32 280 109 433 172 153 62 280 113 283 113 2 0 27 11 56 24 87 39 305
135 423 186 106 46 170 75 360 164 50 23 128 60 175 82 122 56 714 352 855
427 66 35 179 94 250 131 72 38 135 72 140 76 6 4 37 22 70 40 440 241 1013
582 1435 856 134 87 554 365 594 394 31 22 334 232 360 250 56 38 618 451 626
460 4 5 82 66 145 113 106 80 454 356 570 452 22 18 69 57 105 86 36 30 67 56
70 59 3 3 76 65 163 138 86 72 172 145 190 160 30 27 219 195 243 217 6 5 45
39 85 75 72 63 166 149 220 200 14 14 75 70 134 125 325 299 916 890 1190
1190 50 54 106 114 125 134 20 20 94 101 165 181 155 175 266 299 280 314 6 6
75 88 154 181 79 94 156 184 171 201 29 33 205 246 249 302 14 19 49 61 76 95
87 107 200 250 246 312 24 33 46 62 50 65 3 3 34 43 69 90 36 47 67 87 70 90
14 14 358 483 468 640 389 553 819 1218 1077 1662 5 10 47 80 91 155 45 76 94
161 109 188 15 28 65 116 111 198 46 81 84 150 84 153 0 3 8 18 18 32 10 15
47 81 82 147 35 66 92 174 127 240 104 196 475 945 488 985 1 3 21 46 44 95
65 135 92 195 166 365 37 85 79 180 92 210 40 86 94 212 108 250 7 19 43 107
80 195 36 88 84 207 106 265 23 58 45 114 50 125 18 42 218 574 227 606 6 19
27 79 47 134 104 285 272 805 405 1255 10 36 28 97 40 135 12 39 23 77 25 85
1 8 9 35 16 60 7 25 13 50 15 55 1 6 14 53 28 105 14 52 28 102 30 110 11 39
78 293 81 308 3 9 9 37 16 62 6 25 12 53 14 63 2 9 11 45 20 80 9 34 18 71 21
82 2 11 19 83 38 160 19 77 39 165 45 195 17 82 17 86 46 215 33 149 61 281
69 320 9 53 16 88 30 160 8 39 18 88 22 110 4 22 8 45 10 50 1 6 5 30 9 55 4
24 8 47 10 50 2 3 6 26 10 50 3 25 8 52 10 60 2 8 6 29 9 45 15 90 87 530 90
553 3 15 8 47 11 72 3 25 8 52 10 60 2 8 7 44 10 80 3 36 8 72 10 80 2 8 7 35
10 60 3 25 8 56 10 70 5 31 13 89 20 155 3 28 8 57 10 65 2 8 7 48 10 88 4 41
8 81 10 91 2 9 6 47 9 83 4 37 8 75 10 85 2 10 7 52 11 93 4 41 9 83 10 92 2
9 6 48 9 85 4 37 8 88 11 113 2 25 7 77 10 115 3 39 8 86 10 105 2 19 7 69 10
110 3 41 7 95 9 120 3 25 7 90 11 145 3 55 8 125 10 155 2 30 7 105 11 165 3
61 8 128 9 150 2 22 6 128 10 235 5 107 10 220 12 250 2 30 6 814 9 1743 l6
1687 -10961 0 -10961 0 0 -4080 0 -4080 6395 0 c3517 0 6395 -3 6395 -6 0 -6
-79 -219 -130 -354 -43 -111 -52 -136 -61 -155 -4 -11 -40 -96 -78 -190 -38
-93 -111 -262 -161 -375 -51 -113 -99 -223 -108 -245 -22 -53 -381 -771 -430
-860 -21 -38 -58 -106 -82 -150 -24 -44 -86 -154 -138 -245 -53 -91 -105 -182
-116 -202 -164 -288 -586 -933 -844 -1288 -123 -170 -453 -604 -472 -620 -3
-3 -39 -48 -81 -100 -42 -53 -83 -102 -90 -110 -8 -8 -44 -51 -79 -95 -36 -44
-67 -82 -70 -85 -3 -3 -34 -39 -70 -80 -36 -41 -69 -80 -75 -86 -5 -6 -30 -34
-55 -63 -25 -29 -61 -69 -80 -90 -19 -21 -57 -62 -84 -92 -299 -331 -799 -831
-1115 -1115 -30 -27 -64 -58 -76 -69 -11 -11 -54 -49 -95 -85 -41 -36 -88 -77
-105 -92 -81 -72 -350 -296 -520 -433 -569 -456 -1253 -930 -1885 -1304 -58
-35 -112 -67 -120 -72 -32 -19 -288 -164 -350 -197 -36 -19 -117 -63 -180 -97
-124 -67 -566 -290 -696 -351 -44 -20 -108 -50 -144 -66 -542 -251 -1082 -465
-1670 -662 -151 -51 -278 -93 -283 -94 -4 0 -58 -17 -120 -36 -113 -35 -326
-97 -382 -111 -16 -5 -34 -9 -40 -11 -138 -39 -492 -131 -528 -138 -12 -2 -51
-11 -87 -20 -111 -27 -200 -47 -320 -72 -147 -31 -249 -52 -345 -69 -16 -3
-37 -8 -45 -10 -8 -2 -31 -7 -50 -10 -19 -3 -57 -10 -85 -15 -27 -5 -66 -12
-85 -14 -19 -3 -47 -8 -62 -11 -16 -3 -40 -7 -55 -10 -25 -5 -141 -23 -258
-40 -22 -4 -51 -8 -65 -10 -14 -3 -45 -7 -70 -10 -25 -3 -56 -7 -69 -10 -13
-2 -49 -7 -80 -10 -31 -4 -83 -10 -116 -15 -72 -11 -134 -19 -195 -24 -61 -6
-159 -17 -195 -22 -16 -2 -64 -6 -105 -10 -41 -3 -91 -7 -110 -9 -19 -2 -73
-6 -120 -10 -47 -3 -103 -8 -125 -10 -22 -2 -87 -6 -145 -10 -58 -3 -132 -8
-165 -10 -402 -27 -1460 -26 -1820 0 -33 3 -100 7 -150 10 -146 9 -307 22
-395 30 -25 3 -74 7 -110 10 -81 6 -188 18 -280 30 -19 3 -57 7 -85 10 -88 9
-137 16 -285 36 -80 11 -158 21 -175 24 -61 8 -131 18 -150 21 -11 2 -74 13
-140 24 -66 11 -130 22 -141 24 -12 2 -37 7 -55 10 -152 25 -310 56 -553 107
-104 22 -192 41 -195 43 -3 2 -22 7 -42 10 -38 6 -413 98 -554 136 -44 12
-105 28 -135 36 -30 8 -63 17 -73 19 -10 2 -55 15 -100 29 -45 14 -122 37
-172 52 -226 67 -631 200 -850 279 -71 26 -141 50 -155 55 -96 32 -621 244
-835 338 -1166 510 -2225 1123 -3235 1871 -140 104 -414 314 -455 350 -17 14
-46 38 -65 53 -116 91 -475 390 -490 408 -3 4 -50 46 -105 95 -253 222 -418
378 -730 690 -342 342 -580 598 -851 915 -49 58 -99 116 -111 130 -12 14 -79
95 -148 180 -69 85 -134 164 -143 175 -9 11 -63 81 -120 155 -57 74 -115 149
-128 165 -13 17 -77 104 -144 195 -66 91 -127 175 -136 188 -172 233 -505 744
-727 1117 -315 528 -698 1266 -902 1740 -7 17 -35 82 -63 145 -28 63 -60 140
-72 170 -12 30 -28 69 -35 85 -20 46 -147 367 -189 480 -21 55 -42 109 -46
120 -5 11 -32 88 -60 170 -29 83 -58 166 -65 185 -15 37 -106 318 -109 335 -1
6 -14 46 -28 90 -14 44 -40 130 -58 190 -17 61 -36 121 -41 135 -34 97 -236
896 -264 1049 -3 14 -16 77 -29 140 -26 121 -42 201 -51 261 -3 19 -10 51 -15
70 -10 38 -96 555 -105 630 -3 25 -7 59 -10 75 -9 59 -16 111 -21 155 -2 25
-6 52 -9 60 -2 8 -7 40 -10 70 -10 104 -16 155 -25 230 -12 105 -20 182 -25
248 -3 31 -7 77 -9 102 -3 25 -8 79 -11 120 -3 41 -8 98 -10 125 -2 28 -7 100
-10 160 -3 61 -8 133 -10 160 -26 318 -26 1530 0 1790 2 22 7 92 10 155 3 63
7 133 9 155 3 22 7 81 11 130 4 50 8 104 10 120 1 17 6 64 9 105 4 41 9 91 11
110 2 19 7 64 10 100 3 36 8 76 10 90 2 14 7 50 10 80 7 68 34 285 40 323 11
62 14 85 20 136 4 30 8 61 10 70 1 9 8 52 15 96 7 44 14 89 16 100 3 11 7 36
10 55 3 19 7 42 9 50 2 8 7 38 11 65 3 28 8 59 10 70 62 328 96 495 119 585 0
3 4 23 8 45 8 42 24 112 52 229 9 38 18 77 20 85 2 9 24 97 48 197 105 416
275 985 404 1344 24 69 51 145 60 170 16 46 148 399 162 435 5 11 13 31 19 45
6 14 40 99 77 190 37 91 75 183 85 205 10 22 30 68 44 103 15 34 40 93 57 130
17 37 60 132 97 212 70 154 372 761 433 870 19 36 49 90 66 120 272 499 600
1030 941 1520 75 107 138 197 142 200 3 3 48 64 100 135 51 72 140 191 198
265 138 180 152 198 187 240 17 21 42 52 57 71 104 132 406 489 503 595 6 6
39 44 75 84 243 274 743 784 1004 1025 65 61 133 124 151 140 18 17 61 55 95
85 65 57 82 72 146 131 126 114 628 527 799 657 6 4 57 44 115 88 124 94 366
272 477 349 164 115 634 425 763 505 74 45 146 90 160 99 57 35 183 111 186
111 2 0 34 19 71 41 38 23 91 54 118 69 28 15 104 58 170 95 449 254 1202 619
1645 799 36 15 74 31 85 36 11 5 126 50 255 101 129 50 244 95 255 99 58 25
783 274 805 277 3 0 50 14 105 31 109 34 233 70 365 109 101 29 772 199 815
207 38 6 72 14 93 20 9 3 31 8 47 11 17 2 39 7 50 9 157 35 599 120 675 131
25 3 68 10 95 15 28 5 66 12 85 14 19 3 46 8 60 10 14 3 77 12 140 21 63 9
126 18 140 20 14 2 49 7 79 10 30 4 63 8 74 11 11 2 45 6 74 9 66 6 140 15
173 20 14 2 54 6 90 10 36 4 76 8 90 10 14 2 63 7 110 10 47 3 101 8 120 11
86 11 501 38 780 50 247 10 536 13 1373 13 l807 1 0 4081 0 4081 -1035 -3
c-570 -2 -1037 -4 -1038 -5z"/>
<path d="M27680 45510 l0 -4090 53 5 c50 4 132 11 267 20 134 10 254 22 300
30 14 2 57 7 95 10 39 3 81 8 95 10 14 3 50 7 80 10 30 3 80 10 110 15 30 5
75 12 100 15 25 3 71 10 103 16 33 6 73 12 90 13 27 3 121 20 223 40 12 2 37
7 55 10 19 3 59 10 89 16 30 7 69 14 85 16 28 5 185 39 230 50 11 3 31 7 45
10 14 3 33 7 42 10 9 3 27 7 40 9 168 31 778 202 1073 300 44 15 85 28 90 29
6 2 17 6 25 9 8 3 87 31 175 62 245 86 249 88 260 95 6 4 46 20 90 35 44 16
85 31 90 35 6 4 33 15 60 25 45 16 394 167 505 218 25 11 47 21 50 22 3 1 52
24 110 52 280 136 493 246 680 351 63 36 135 76 160 90 25 14 61 34 80 45 19
11 87 51 150 90 63 38 133 81 155 94 135 81 509 329 621 412 34 25 72 53 84
61 13 8 35 24 49 36 14 11 48 36 75 54 91 61 618 478 646 510 3 4 37 32 75 65
39 32 93 79 121 104 27 25 86 78 129 116 234 208 656 629 875 874 41 46 94
105 117 130 54 60 74 83 115 133 18 23 38 46 43 52 80 86 440 542 555 703 25
35 69 95 98 135 125 170 411 609 566 868 15 25 31 52 36 60 5 8 54 94 108 190
166 293 296 548 471 923 88 188 277 645 356 860 l14 37 -5504 0 -5505 0 0
-4090z"/>
<path d="M24548 40265 c-2 -2 -91 -6 -198 -10 -107 -4 -208 -9 -225 -10 -16
-2 -84 -7 -150 -10 -66 -4 -136 -8 -155 -10 -19 -2 -69 -6 -110 -10 -41 -3
-91 -8 -110 -10 -19 -2 -73 -6 -120 -10 -47 -3 -92 -8 -100 -10 -8 -2 -44 -6
-80 -10 -36 -3 -76 -8 -90 -10 -14 -2 -54 -7 -90 -10 -36 -4 -76 -8 -90 -10
-14 -2 -119 -18 -235 -35 -115 -16 -221 -32 -235 -35 -14 -3 -41 -7 -60 -10
-19 -3 -46 -7 -60 -10 -14 -3 -41 -8 -60 -11 -56 -8 -201 -34 -245 -44 -64
-14 -90 -19 -131 -26 -21 -3 -111 -21 -199 -41 -88 -19 -171 -37 -184 -39 -14
-3 -61 -14 -105 -25 -45 -11 -90 -21 -101 -24 -11 -3 -49 -12 -84 -21 -36 -9
-74 -18 -85 -20 -183 -35 -1206 -346 -1361 -414 -11 -5 -58 -22 -105 -39 -100
-35 -217 -78 -245 -91 -11 -5 -56 -22 -100 -38 -97 -37 -484 -198 -578 -241
-37 -17 -69 -31 -71 -31 -2 0 -55 -24 -117 -53 -63 -30 -148 -69 -189 -88
-215 -97 -704 -351 -1010 -526 -57 -32 -170 -97 -188 -108 -9 -6 -62 -37 -117
-69 -264 -157 -746 -471 -1010 -661 -330 -236 -891 -674 -1051 -820 -6 -5 -35
-30 -64 -55 -47 -39 -90 -78 -176 -155 -12 -11 -50 -45 -85 -75 -179 -156
-676 -640 -848 -826 -30 -33 -86 -93 -125 -134 -101 -108 -345 -382 -436 -490
-30 -36 -57 -67 -60 -70 -9 -9 -133 -161 -257 -315 -103 -129 -344 -445 -423
-555 -13 -19 -60 -84 -103 -145 -117 -162 -447 -661 -447 -674 0 -6 -4 -11
-10 -11 -5 0 -10 -5 -10 -11 0 -6 -13 -29 -29 -52 -95 -139 -394 -659 -550
-957 -74 -141 -311 -617 -311 -625 0 -2 -20 -46 -45 -96 -25 -51 -45 -98 -45
-105 0 -8 -4 -14 -9 -14 -5 0 -12 -12 -16 -27 -3 -16 -20 -57 -37 -93 -38 -81
-204 -477 -228 -545 -19 -50 -105 -277 -117 -305 -34 -84 -248 -716 -283 -840
-12 -41 -28 -95 -35 -120 -51 -169 -177 -637 -191 -710 -3 -14 -13 -57 -24
-96 -11 -40 -22 -87 -25 -105 -3 -19 -15 -74 -26 -124 -32 -142 -86 -405 -95
-460 -4 -27 -8 -52 -9 -55 -1 -6 -12 -62 -20 -100 -3 -14 -8 -45 -11 -70 -3
-25 -7 -47 -9 -50 -2 -3 -6 -30 -10 -60 -4 -30 -8 -57 -10 -60 -2 -3 -6 -29
-10 -59 -4 -30 -8 -63 -11 -74 -2 -11 -8 -57 -14 -101 -14 -103 -20 -145 -26
-176 -4 -27 -21 -164 -30 -245 -2 -27 -7 -66 -9 -85 -15 -137 -31 -295 -40
-405 -11 -128 -14 -179 -20 -280 -4 -55 -8 -116 -10 -135 -26 -269 -26 -1396
0 -1745 2 -27 7 -102 10 -165 3 -63 8 -131 10 -150 3 -19 7 -69 10 -110 3 -41
8 -97 10 -125 3 -27 7 -77 10 -110 3 -33 7 -73 10 -90 2 -16 7 -57 10 -90 3
-33 8 -71 10 -85 2 -14 7 -53 10 -88 4 -35 8 -71 10 -81 2 -9 6 -44 10 -76 4
-33 9 -69 11 -80 2 -11 6 -40 10 -65 3 -25 9 -70 14 -100 5 -30 11 -71 14 -90
3 -19 12 -73 20 -120 8 -47 18 -107 22 -135 4 -27 8 -52 9 -55 0 -3 4 -23 8
-45 54 -282 74 -384 104 -520 32 -148 101 -443 123 -525 5 -19 19 -71 31 -115
60 -225 118 -436 124 -445 3 -5 8 -19 10 -30 8 -42 88 -294 166 -525 136 -404
300 -827 467 -1210 66 -149 89 -201 172 -380 57 -125 249 -507 320 -640 38
-71 73 -137 76 -145 4 -8 24 -44 44 -80 20 -36 51 -90 67 -120 43 -79 279
-479 333 -565 8 -14 44 -71 79 -127 68 -108 307 -468 385 -578 25 -36 51 -73
58 -84 43 -61 335 -456 375 -506 7 -8 35 -44 63 -80 28 -36 56 -72 63 -80 7
-8 39 -49 72 -90 70 -88 61 -77 210 -255 65 -77 131 -156 149 -175 17 -19 65
-73 106 -120 391 -443 828 -879 1326 -1325 13 -12 130 -114 154 -135 10 -8 37
-31 60 -50 24 -19 48 -39 54 -45 95 -85 447 -366 651 -519 94 -70 177 -133
185 -139 142 -110 614 -430 885 -600 158 -99 553 -337 560 -337 2 0 30 -15 62
-34 197 -114 513 -281 768 -406 189 -92 570 -270 579 -270 3 0 33 -13 68 -29
35 -16 104 -46 153 -66 50 -20 104 -42 120 -50 64 -29 338 -136 500 -195 94
-34 190 -70 215 -79 25 -10 153 -53 285 -96 132 -43 249 -81 260 -86 16 -7 67
-21 120 -35 6 -1 55 -17 110 -34 55 -17 159 -47 230 -66 72 -19 137 -37 145
-39 35 -11 498 -125 525 -130 17 -3 46 -10 65 -15 19 -5 50 -12 69 -15 19 -3
37 -7 40 -9 3 -2 24 -7 46 -10 22 -4 56 -11 75 -16 19 -5 121 -25 225 -44 105
-20 201 -38 215 -41 13 -2 42 -7 65 -10 22 -4 78 -13 125 -21 47 -8 101 -17
120 -20 19 -2 60 -8 90 -14 30 -5 78 -12 105 -15 28 -3 61 -8 75 -10 49 -7
115 -17 130 -20 8 -2 49 -6 90 -10 41 -3 86 -8 100 -10 14 -2 50 -7 80 -10 30
-3 66 -8 80 -10 14 -2 57 -6 95 -9 39 -4 90 -8 115 -11 25 -2 79 -7 120 -10
41 -3 91 -8 110 -10 19 -2 87 -7 150 -10 63 -3 134 -8 158 -10 313 -26 1397
-26 1737 0 28 2 95 7 150 10 55 3 120 7 145 10 25 2 83 6 130 10 47 4 99 8
115 10 17 1 47 3 68 4 l37 1 0 8901 0 8900 -1232 -4 c-678 -2 -1246 -7 -1263
-10 -16 -3 -57 -8 -90 -11 -115 -12 -151 -17 -240 -32 -323 -54 -582 -126
-890 -247 -96 -38 -237 -100 -269 -118 -11 -6 -51 -27 -90 -47 -136 -68 -390
-221 -492 -297 -23 -16 -51 -37 -64 -45 -13 -8 -49 -35 -80 -60 -31 -25 -69
-54 -85 -65 -15 -11 -32 -25 -39 -31 -6 -5 -48 -42 -93 -82 -521 -458 -924
-1037 -1166 -1677 -39 -101 -91 -255 -103 -300 -4 -16 -9 -34 -10 -40 -49
-147 -114 -480 -140 -710 -4 -33 -9 -80 -12 -105 -3 -25 -6 -1244 -8 -2710 -2
-1466 -5 -2747 -7 -2847 l-2 -182 -126 92 c-150 109 -170 124 -268 201 -100
79 -303 246 -316 260 -5 6 -26 24 -45 40 -121 99 -514 481 -655 636 -250 275
-382 436 -581 705 -74 99 -137 185 -141 190 -89 113 -353 540 -500 805 -63
115 -273 533 -273 544 0 2 -16 40 -36 83 -37 81 -46 102 -84 193 -12 30 -28
69 -35 85 -28 68 -38 93 -62 160 -13 39 -28 79 -33 90 -16 34 -107 304 -145
430 -85 278 -183 671 -220 880 -4 18 -17 99 -29 168 -3 15 -7 35 -10 45 -2 9
-7 40 -11 67 -3 28 -8 59 -10 70 -2 11 -7 43 -10 70 -3 28 -10 79 -15 115 -5
36 -12 99 -16 140 -3 41 -8 77 -9 80 -2 4 -7 49 -10 100 -4 52 -8 109 -10 125
-26 225 -26 1037 0 1295 2 19 6 72 10 117 3 46 8 97 10 115 3 17 7 59 10 92 3
34 8 72 10 86 2 14 7 45 10 70 3 25 8 56 10 70 2 14 6 45 9 70 3 25 8 56 11
70 3 14 10 54 15 90 13 77 18 106 25 140 2 14 7 36 9 50 3 14 10 50 16 80 6
30 13 66 16 80 3 14 7 33 10 42 3 10 7 28 10 40 9 51 14 71 39 175 83 334 248
853 350 1098 188 453 339 770 488 1023 20 35 37 65 37 67 0 19 335 544 435
683 46 64 103 144 127 176 24 33 72 97 108 142 36 45 76 97 90 115 34 46 125
155 174 209 23 25 66 74 96 110 156 183 527 554 730 730 47 41 87 77 90 80 3
3 34 30 70 60 36 30 67 57 70 60 3 3 32 25 64 50 33 25 69 53 80 63 65 54 167
131 334 250 440 314 938 603 1407 817 28 12 73 33 100 45 75 35 237 101 355
146 58 22 114 44 125 49 11 5 74 27 140 50 66 23 127 44 135 46 36 13 238 77
265 84 17 5 62 17 100 28 98 29 225 62 255 68 14 3 43 10 65 16 22 5 47 12 55
13 201 45 299 66 324 70 17 2 69 11 115 20 46 9 97 18 115 20 17 3 42 7 55 10
13 2 49 7 80 11 31 3 58 8 61 9 3 2 33 6 65 10 33 4 71 8 85 10 59 9 109 15
170 20 36 3 90 8 120 11 96 9 146 13 470 29 36 2 455 4 933 4 l867 1 0 3366 0
3365 -980 -2 c-538 -1 -981 -3 -982 -4z"/>
</g>
</svg>
